solid ASCII
  facet normal 0.000000e+00 -1.000000e+00 3.157968e-15
    outer loop
      vertex   -5.583968e+02 -2.275969e+02 -9.000000e+00
      vertex   -5.583968e+02 -2.275969e+02 0.000000e+00
      vertex   -5.584968e+02 -2.275969e+02 -9.000000e+00
    endloop
  endfacet
  facet normal 0.000000e+00 -1.000000e+00 3.157968e-15
    outer loop
      vertex   -5.584968e+02 -2.275969e+02 -9.000000e+00
      vertex   -5.583968e+02 -2.275969e+02 0.000000e+00
      vertex   -5.584968e+02 -2.275969e+02 0.000000e+00
    endloop
  endfacet
  facet normal -0.000000e+00 -0.000000e+00 -1.000000e+00
    outer loop
      vertex   -5.583968e+02 -1.940229e+02 -9.000000e+00
      vertex   -5.583968e+02 -2.275969e+02 -9.000000e+00
      vertex   -5.584968e+02 -1.940229e+02 -9.000000e+00
    endloop
  endfacet
  facet normal 0.000000e+00 0.000000e+00 -1.000000e+00
    outer loop
      vertex   -5.584968e+02 -1.940229e+02 -9.000000e+00
      vertex   -5.583968e+02 -2.275969e+02 -9.000000e+00
      vertex   -5.584968e+02 -2.275969e+02 -9.000000e+00
    endloop
  endfacet
  facet normal 0.000000e+00 1.000000e+00 0.000000e+00
    outer loop
      vertex   -5.583968e+02 -1.940229e+02 0.000000e+00
      vertex   -5.583968e+02 -1.940229e+02 -9.000000e+00
      vertex   -5.584968e+02 -1.940229e+02 0.000000e+00
    endloop
  endfacet
  facet normal 0.000000e+00 1.000000e+00 0.000000e+00
    outer loop
      vertex   -5.584968e+02 -1.940229e+02 0.000000e+00
      vertex   -5.583968e+02 -1.940229e+02 -9.000000e+00
      vertex   -5.584968e+02 -1.940229e+02 -9.000000e+00
    endloop
  endfacet
  facet normal 0.000000e+00 -0.000000e+00 1.000000e+00
    outer loop
      vertex   -5.583968e+02 -2.275969e+02 0.000000e+00
      vertex   -5.583968e+02 -1.940229e+02 0.000000e+00
      vertex   -5.584968e+02 -2.275969e+02 0.000000e+00
    endloop
  endfacet
  facet normal 0.000000e+00 0.000000e+00 1.000000e+00
    outer loop
      vertex   -5.584968e+02 -2.275969e+02 0.000000e+00
      vertex   -5.583968e+02 -1.940229e+02 0.000000e+00
      vertex   -5.584968e+02 -1.940229e+02 0.000000e+00
    endloop
  endfacet
  facet normal -1.000000e+00 -0.000000e+00 -0.000000e+00
    outer loop
      vertex   -5.584968e+02 -1.940229e+02 0.000000e+00
      vertex   -5.584968e+02 -1.940229e+02 -9.000000e+00
      vertex   -5.584968e+02 -2.275969e+02 0.000000e+00
    endloop
  endfacet
  facet normal -1.000000e+00 0.000000e+00 -0.000000e+00
    outer loop
      vertex   -5.584968e+02 -2.275969e+02 0.000000e+00
      vertex   -5.584968e+02 -1.940229e+02 -9.000000e+00
      vertex   -5.584968e+02 -2.275969e+02 -9.000000e+00
    endloop
  endfacet
  facet normal 1.000000e+00 0.000000e+00 0.000000e+00
    outer loop
      vertex   -5.583968e+02 -1.940229e+02 0.000000e+00
      vertex   -5.583968e+02 -2.275969e+02 0.000000e+00
      vertex   -5.583968e+02 -1.940229e+02 -9.000000e+00
    endloop
  endfacet
  facet normal 1.000000e+00 0.000000e+00 0.000000e+00
    outer loop
      vertex   -5.583968e+02 -1.940229e+02 -9.000000e+00
      vertex   -5.583968e+02 -2.275969e+02 0.000000e+00
      vertex   -5.583968e+02 -2.275969e+02 -9.000000e+00
    endloop
  endfacet
endsolid
