solid ASCII
  facet normal 6.429379e-01 7.659183e-01 -1.209373e-15
    outer loop
      vertex   2.160323e+01 -1.202494e+02 -9.000000e+00
      vertex   2.160323e+01 -1.202494e+02 0.000000e+00
      vertex   2.167982e+01 -1.203137e+02 -9.000000e+00
    endloop
  endfacet
  facet normal 6.429379e-01 7.659183e-01 -1.209373e-15
    outer loop
      vertex   2.167982e+01 -1.203137e+02 -9.000000e+00
      vertex   2.160323e+01 -1.202494e+02 0.000000e+00
      vertex   2.167982e+01 -1.203137e+02 0.000000e+00
    endloop
  endfacet
  facet normal -4.081633e-14 3.426261e-14 -1.000000e+00
    outer loop
      vertex   -2.944804e+01 -1.810657e+02 -9.000000e+00
      vertex   2.160323e+01 -1.202494e+02 -9.000000e+00
      vertex   -2.937144e+01 -1.811300e+02 -9.000000e+00
    endloop
  endfacet
  facet normal -4.081633e-14 3.426261e-14 -1.000000e+00
    outer loop
      vertex   -2.937144e+01 -1.811300e+02 -9.000000e+00
      vertex   2.160323e+01 -1.202494e+02 -9.000000e+00
      vertex   2.167982e+01 -1.203137e+02 -9.000000e+00
    endloop
  endfacet
  facet normal -6.429379e-01 -7.659183e-01 -5.598882e-15
    outer loop
      vertex   -2.944804e+01 -1.810657e+02 0.000000e+00
      vertex   -2.944804e+01 -1.810657e+02 -9.000000e+00
      vertex   -2.937144e+01 -1.811300e+02 0.000000e+00
    endloop
  endfacet
  facet normal -6.429379e-01 -7.659183e-01 -2.926340e-15
    outer loop
      vertex   -2.937144e+01 -1.811300e+02 0.000000e+00
      vertex   -2.944804e+01 -1.810657e+02 -9.000000e+00
      vertex   -2.937144e+01 -1.811300e+02 -9.000000e+00
    endloop
  endfacet
  facet normal 0.000000e+00 0.000000e+00 1.000000e+00
    outer loop
      vertex   2.160323e+01 -1.202494e+02 0.000000e+00
      vertex   -2.944804e+01 -1.810657e+02 0.000000e+00
      vertex   2.167982e+01 -1.203137e+02 0.000000e+00
    endloop
  endfacet
  facet normal 0.000000e+00 0.000000e+00 1.000000e+00
    outer loop
      vertex   2.167982e+01 -1.203137e+02 0.000000e+00
      vertex   -2.944804e+01 -1.810657e+02 0.000000e+00
      vertex   -2.937144e+01 -1.811300e+02 0.000000e+00
    endloop
  endfacet
  facet normal 7.659183e-01 -6.429379e-01 -1.425691e-15
    outer loop
      vertex   -2.937144e+01 -1.811300e+02 0.000000e+00
      vertex   -2.937144e+01 -1.811300e+02 -9.000000e+00
      vertex   2.167982e+01 -1.203137e+02 0.000000e+00
    endloop
  endfacet
  facet normal 7.659183e-01 -6.429379e-01 1.015188e-15
    outer loop
      vertex   2.167982e+01 -1.203137e+02 0.000000e+00
      vertex   -2.937144e+01 -1.811300e+02 -9.000000e+00
      vertex   2.167982e+01 -1.203137e+02 -9.000000e+00
    endloop
  endfacet
  facet normal -7.659183e-01 6.429379e-01 3.153724e-15
    outer loop
      vertex   -2.944804e+01 -1.810657e+02 0.000000e+00
      vertex   2.160323e+01 -1.202494e+02 0.000000e+00
      vertex   -2.944804e+01 -1.810657e+02 -9.000000e+00
    endloop
  endfacet
  facet normal -7.659183e-01 6.429379e-01 -1.272683e-15
    outer loop
      vertex   -2.944804e+01 -1.810657e+02 -9.000000e+00
      vertex   2.160323e+01 -1.202494e+02 0.000000e+00
      vertex   2.160323e+01 -1.202494e+02 -9.000000e+00
    endloop
  endfacet
endsolid
