solid ASCII
  facet normal 0.000000e+00 0.000000e+00 1.000000e+00
    outer loop
      vertex   2.691203e+01 -3.527421e+02 9.000000e+00
      vertex   -4.239111e+01 -3.527421e+02 9.000000e+00
      vertex   2.691203e+01 -3.527521e+02 9.000000e+00
    endloop
  endfacet
  facet normal 0.000000e+00 0.000000e+00 1.000000e+00
    outer loop
      vertex   2.691203e+01 -3.527521e+02 9.000000e+00
      vertex   -4.239111e+01 -3.527421e+02 9.000000e+00
      vertex   -4.239111e+01 -3.527521e+02 9.000000e+00
    endloop
  endfacet
  facet normal 0.000000e+00 -1.000000e+00 0.000000e+00
    outer loop
      vertex   -4.239111e+01 -3.527521e+02 9.000000e+00
      vertex   -4.239111e+01 -3.527521e+02 1.000000e-02
      vertex   2.691203e+01 -3.527521e+02 9.000000e+00
    endloop
  endfacet
  facet normal 0.000000e+00 -1.000000e+00 0.000000e+00
    outer loop
      vertex   2.691203e+01 -3.527521e+02 9.000000e+00
      vertex   -4.239111e+01 -3.527521e+02 1.000000e-02
      vertex   2.691203e+01 -3.527521e+02 1.000000e-02
    endloop
  endfacet
  facet normal -1.000000e+00 -0.000000e+00 -0.000000e+00
    outer loop
      vertex   -4.239111e+01 -3.527421e+02 9.000000e+00
      vertex   -4.239111e+01 -3.527421e+02 1.000000e-02
      vertex   -4.239111e+01 -3.527521e+02 9.000000e+00
    endloop
  endfacet
  facet normal -1.000000e+00 0.000000e+00 0.000000e+00
    outer loop
      vertex   -4.239111e+01 -3.527521e+02 9.000000e+00
      vertex   -4.239111e+01 -3.527421e+02 1.000000e-02
      vertex   -4.239111e+01 -3.527521e+02 1.000000e-02
    endloop
  endfacet
  facet normal 1.000000e+00 0.000000e+00 -3.951851e-15
    outer loop
      vertex   2.691203e+01 -3.527521e+02 9.000000e+00
      vertex   2.691203e+01 -3.527521e+02 1.000000e-02
      vertex   2.691203e+01 -3.527421e+02 9.000000e+00
    endloop
  endfacet
  facet normal 1.000000e+00 0.000000e+00 -3.951851e-15
    outer loop
      vertex   2.691203e+01 -3.527421e+02 9.000000e+00
      vertex   2.691203e+01 -3.527521e+02 1.000000e-02
      vertex   2.691203e+01 -3.527421e+02 1.000000e-02
    endloop
  endfacet
  facet normal 0.000000e+00 0.000000e+00 -1.000000e+00
    outer loop
      vertex   -4.239111e+01 -3.527421e+02 1.000000e-02
      vertex   2.691203e+01 -3.527421e+02 1.000000e-02
      vertex   -4.239111e+01 -3.527521e+02 1.000000e-02
    endloop
  endfacet
  facet normal 0.000000e+00 0.000000e+00 -1.000000e+00
    outer loop
      vertex   -4.239111e+01 -3.527521e+02 1.000000e-02
      vertex   2.691203e+01 -3.527421e+02 1.000000e-02
      vertex   2.691203e+01 -3.527521e+02 1.000000e-02
    endloop
  endfacet
  facet normal -0.000000e+00 1.000000e+00 0.000000e+00
    outer loop
      vertex   -4.239111e+01 -3.527421e+02 9.000000e+00
      vertex   2.691203e+01 -3.527421e+02 9.000000e+00
      vertex   -4.239111e+01 -3.527421e+02 1.000000e-02
    endloop
  endfacet
  facet normal 0.000000e+00 1.000000e+00 0.000000e+00
    outer loop
      vertex   -4.239111e+01 -3.527421e+02 1.000000e-02
      vertex   2.691203e+01 -3.527421e+02 9.000000e+00
      vertex   2.691203e+01 -3.527421e+02 1.000000e-02
    endloop
  endfacet
endsolid
