solid ASCII
  facet normal -1.000000e+00 0.000000e+00 0.000000e+00
    outer loop
      vertex   -5.554017e+02 5.627965e+02 -9.000000e+00
      vertex   -5.554017e+02 5.627965e+02 0.000000e+00
      vertex   -5.554017e+02 5.628965e+02 -9.000000e+00
    endloop
  endfacet
  facet normal -1.000000e+00 0.000000e+00 0.000000e+00
    outer loop
      vertex   -5.554017e+02 5.628965e+02 -9.000000e+00
      vertex   -5.554017e+02 5.627965e+02 0.000000e+00
      vertex   -5.554017e+02 5.628965e+02 0.000000e+00
    endloop
  endfacet
  facet normal 0.000000e+00 0.000000e+00 -1.000000e+00
    outer loop
      vertex   -4.535960e+02 5.627965e+02 -9.000000e+00
      vertex   -5.554017e+02 5.627965e+02 -9.000000e+00
      vertex   -4.535960e+02 5.628965e+02 -9.000000e+00
    endloop
  endfacet
  facet normal -0.000000e+00 0.000000e+00 -1.000000e+00
    outer loop
      vertex   -4.535960e+02 5.628965e+02 -9.000000e+00
      vertex   -5.554017e+02 5.627965e+02 -9.000000e+00
      vertex   -5.554017e+02 5.628965e+02 -9.000000e+00
    endloop
  endfacet
  facet normal 1.000000e+00 -0.000000e+00 0.000000e+00
    outer loop
      vertex   -4.535960e+02 5.627965e+02 0.000000e+00
      vertex   -4.535960e+02 5.627965e+02 -9.000000e+00
      vertex   -4.535960e+02 5.628965e+02 0.000000e+00
    endloop
  endfacet
  facet normal 1.000000e+00 0.000000e+00 0.000000e+00
    outer loop
      vertex   -4.535960e+02 5.628965e+02 0.000000e+00
      vertex   -4.535960e+02 5.627965e+02 -9.000000e+00
      vertex   -4.535960e+02 5.628965e+02 -9.000000e+00
    endloop
  endfacet
  facet normal 0.000000e+00 0.000000e+00 1.000000e+00
    outer loop
      vertex   -5.554017e+02 5.627965e+02 0.000000e+00
      vertex   -4.535960e+02 5.627965e+02 0.000000e+00
      vertex   -5.554017e+02 5.628965e+02 0.000000e+00
    endloop
  endfacet
  facet normal -0.000000e+00 0.000000e+00 1.000000e+00
    outer loop
      vertex   -5.554017e+02 5.628965e+02 0.000000e+00
      vertex   -4.535960e+02 5.627965e+02 0.000000e+00
      vertex   -4.535960e+02 5.628965e+02 0.000000e+00
    endloop
  endfacet
  facet normal 0.000000e+00 1.000000e+00 0.000000e+00
    outer loop
      vertex   -4.535960e+02 5.628965e+02 0.000000e+00
      vertex   -4.535960e+02 5.628965e+02 -9.000000e+00
      vertex   -5.554017e+02 5.628965e+02 0.000000e+00
    endloop
  endfacet
  facet normal 0.000000e+00 1.000000e+00 0.000000e+00
    outer loop
      vertex   -5.554017e+02 5.628965e+02 0.000000e+00
      vertex   -4.535960e+02 5.628965e+02 -9.000000e+00
      vertex   -5.554017e+02 5.628965e+02 -9.000000e+00
    endloop
  endfacet
  facet normal -0.000000e+00 -1.000000e+00 -0.000000e+00
    outer loop
      vertex   -4.535960e+02 5.627965e+02 0.000000e+00
      vertex   -5.554017e+02 5.627965e+02 0.000000e+00
      vertex   -4.535960e+02 5.627965e+02 -9.000000e+00
    endloop
  endfacet
  facet normal 0.000000e+00 -1.000000e+00 0.000000e+00
    outer loop
      vertex   -4.535960e+02 5.627965e+02 -9.000000e+00
      vertex   -5.554017e+02 5.627965e+02 0.000000e+00
      vertex   -5.554017e+02 5.627965e+02 -9.000000e+00
    endloop
  endfacet
endsolid
